<svg width="16" height="16" viewBox="0 0 16 16" fill="none" xmlns="http://www.w3.org/2000/svg">
<path fill-rule="evenodd" clip-rule="evenodd" d="M1.33398 7.99992C1.33398 4.31802 4.31875 1.33325 8.00065 1.33325C11.6825 1.33325 14.6673 4.31802 14.6673 7.99992C14.6673 11.6818 11.6825 14.6666 8.00065 14.6666C4.31875 14.6666 1.33398 11.6818 1.33398 7.99992ZM10.2586 6.54433C10.3752 6.40185 10.3542 6.19184 10.2117 6.07527C10.0692 5.95869 9.85924 5.97969 9.74267 6.12217L6.97591 9.50377L5.90302 8.43088C5.77285 8.30071 5.56179 8.30071 5.43162 8.43088C5.30144 8.56106 5.30144 8.77211 5.43162 8.90229L6.76495 10.2356C6.83154 10.3022 6.9232 10.3375 7.01726 10.3328C7.11132 10.3281 7.199 10.2839 7.25864 10.211L10.2586 6.54433Z" fill="#00C20B"/>
</svg>
