<svg width="20" height="20" viewBox="0 0 20 20" fill="none" xmlns="http://www.w3.org/2000/svg">
<path fill-rule="evenodd" clip-rule="evenodd" d="M5.83333 4.79167C5.83333 3.52601 6.85935 2.5 8.125 2.5H15.2083C16.474 2.5 17.5 3.52601 17.5 4.79167V11.8833C17.5 13.149 16.474 14.175 15.2083 14.175H14.1667V15.2083C14.1667 16.474 13.1407 17.5 11.875 17.5H4.79167C3.52601 17.5 2.5 16.474 2.5 15.2083V8.125C2.5 6.85935 3.52601 5.83333 4.79167 5.83333H5.83333V4.79167ZM14.1667 12.925V8.125C14.1667 6.85935 13.1407 5.83333 11.875 5.83333H7.08333V4.79167C7.08333 4.21637 7.5497 3.75 8.125 3.75H15.2083C15.7836 3.75 16.25 4.21637 16.25 4.79167V11.8833C16.25 12.4586 15.7836 12.925 15.2083 12.925H14.1667Z" fill="#767676"/>
</svg>
