<svg width="132" height="62" viewBox="0 0 132 62" fill="none" xmlns="http://www.w3.org/2000/svg">
<g clip-path="url(#clip0_15338_58215)">
<rect x="0.544922" width="62.7833" height="61.4474" rx="30.7237" fill="#5E5E5E"/>
<g clip-path="url(#clip1_15338_58215)">
<path d="M37.498 64.9487H-15.4904L-15.4904 23.0687L30.5376 23.0687C34.3792 23.0687 37.498 26.1875 37.498 30.0291L37.498 64.9487Z" fill="#8C8C8C"/>
<path d="M11.3755 48.1282C15.3798 48.1282 18.626 44.882 18.626 40.8777C18.626 36.8734 15.3798 33.6272 11.3755 33.6272C7.37116 33.6272 4.125 36.8734 4.125 40.8777C4.125 44.882 7.37116 48.1282 11.3755 48.1282Z" fill="white"/>
<path d="M27.7603 48.1282C31.7646 48.1282 35.0108 44.882 35.0108 40.8777C35.0108 36.8734 31.7646 33.6272 27.7603 33.6272C23.7559 33.6272 20.5098 36.8734 20.5098 40.8777C20.5098 44.882 23.7559 48.1282 27.7603 48.1282Z" fill="white"/>
<path d="M14.2761 45.2282C16.6787 45.2282 18.6264 43.2805 18.6264 40.8779C18.6264 38.4753 16.6787 36.5276 14.2761 36.5276C11.8735 36.5276 9.92578 38.4753 9.92578 40.8779C9.92578 43.2805 11.8735 45.2282 14.2761 45.2282Z" fill="#0F0F0F"/>
<path d="M30.6608 45.2282C33.0635 45.2282 35.0112 43.2805 35.0112 40.8779C35.0112 38.4753 33.0635 36.5276 30.6608 36.5276C28.2582 36.5276 26.3105 38.4753 26.3105 40.8779C26.3105 43.2805 28.2582 45.2282 30.6608 45.2282Z" fill="#0F0F0F"/>
</g>
</g>
<g clip-path="url(#clip2_15338_58215)">
<rect x="68.6719" width="62.7833" height="61.4474" rx="30.7237" fill="#5E5E5E"/>
<g clip-path="url(#clip3_15338_58215)">
<path d="M120.217 13.904L105.425 39.5232C104.721 40.744 103.418 41.4959 102.008 41.4959H70.1483L69.7148 40.7451V0.291504H114.636L120.217 9.95866C120.921 11.1795 120.921 12.6832 120.217 13.904Z" fill="#8C8C8C"/>
<path d="M130.585 0.291504H114.636H69.7148V40.7451V61.1622" stroke="#8C8C8C" stroke-width="0.0563617" stroke-miterlimit="10"/>
<path d="M93.1055 21.8145C93.1055 17.9239 96.26 14.7693 100.151 14.7693C104.041 14.7693 107.196 17.9239 107.196 21.8145H93.1055Z" fill="white"/>
<path d="M91.274 21.8145C91.274 17.9239 88.12 14.7693 84.2288 14.7693C80.3376 14.7693 77.1836 17.9239 77.1836 21.8145H91.274Z" fill="white"/>
<path d="M95.9219 21.8148C95.9219 19.4803 97.8145 17.5876 100.149 17.5876C102.484 17.5876 104.376 19.4803 104.376 21.8148H95.9219Z" fill="#0F0F0F"/>
<path d="M80 21.8148C80 19.4803 81.8926 17.5876 84.2271 17.5876C86.5616 17.5876 88.4543 19.4803 88.4543 21.8148H80Z" fill="#0F0F0F"/>
</g>
</g>
<g clip-path="url(#clip4_15338_58215)">
<rect x="34.3359" width="62.7833" height="61.4474" rx="30.7237" fill="#5E5E5E"/>
<g clip-path="url(#clip5_15338_58215)">
<path d="M87.3391 57.6358C87.878 58.6631 88.3024 59.6566 88.6198 60.6084H44.2694C44.5869 59.6566 45.0113 58.6631 45.5501 57.6358C33.8479 53.986 33.8479 43.9757 45.5501 40.3259C39.856 29.4708 46.9349 22.3925 57.7894 28.086C61.4392 16.3844 71.45 16.3844 75.0999 28.086C85.9544 22.3925 93.0332 29.4708 87.3391 40.3259C99.0413 43.9757 99.0413 53.986 87.3391 57.6358Z" fill="#F3DD6C"/>
<path d="M58.3685 47.1343C62.3173 47.1343 65.5183 43.9332 65.5183 39.9845C65.5183 36.0358 62.3173 32.8347 58.3685 32.8347C54.4198 32.8347 51.2188 36.0358 51.2188 39.9845C51.2188 43.9332 54.4198 47.1343 58.3685 47.1343Z" fill="white"/>
<path d="M74.5248 47.1343C78.4735 47.1343 81.6746 43.9332 81.6746 39.9845C81.6746 36.0358 78.4735 32.8347 74.5248 32.8347C70.5761 32.8347 67.375 36.0358 67.375 39.9845C67.375 43.9332 70.5761 47.1343 74.5248 47.1343Z" fill="white"/>
<path d="M58.368 41.4145C60.7372 41.4145 62.6579 39.4938 62.6579 37.1246C62.6579 34.7554 60.7372 32.8347 58.368 32.8347C55.9988 32.8347 54.0781 34.7554 54.0781 37.1246C54.0781 39.4938 55.9988 41.4145 58.368 41.4145Z" fill="#0F0F0F"/>
<path d="M74.5262 41.4145C76.8954 41.4145 78.8161 39.4938 78.8161 37.1246C78.8161 34.7554 76.8954 32.8347 74.5262 32.8347C72.157 32.8347 70.2363 34.7554 70.2363 37.1246C70.2363 39.4938 72.157 41.4145 74.5262 41.4145Z" fill="#0F0F0F"/>
</g>
</g>
<rect x="35.0607" y="0.724771" width="61.3337" height="59.9979" rx="29.999" stroke="#363636" stroke-width="1.44954"/>
<defs>
<clipPath id="clip0_15338_58215">
<rect x="0.544922" width="62.7833" height="61.4474" rx="30.7237" fill="white"/>
</clipPath>
<clipPath id="clip1_15338_58215">
<rect width="62.6444" height="62.6444" fill="white" transform="translate(-15.4883 2.3103)"/>
</clipPath>
<clipPath id="clip2_15338_58215">
<rect x="68.6719" width="62.7833" height="61.4474" rx="30.7237" fill="white"/>
</clipPath>
<clipPath id="clip3_15338_58215">
<rect width="60.8707" height="60.8707" fill="white" transform="translate(69.7148 0.292969)"/>
</clipPath>
<clipPath id="clip4_15338_58215">
<rect x="34.3359" width="62.7833" height="61.4474" rx="30.7237" fill="white"/>
</clipPath>
<clipPath id="clip5_15338_58215">
<rect width="61.7741" height="61.7741" fill="white" transform="translate(35.5605 -1.1665)"/>
</clipPath>
</defs>
</svg>
